<svg width="48" height="48" viewBox="0 0 48 48" fill="none" xmlns="http://www.w3.org/2000/svg">
<g filter="url(#filter0_d_10122_123)">
<path d="M34.9743 7.12298L35.2912 6.73364L34.9006 6.41831C31.9205 4.01253 28.1373 2.57677 24 2.57677C22.5506 2.57677 21.1451 2.7753 19.814 3.10067L19.073 3.28177L19.5347 3.88897C20.957 5.75989 23.0002 8.5854 25.4471 13.0106L25.6537 13.3844L26.0552 13.2386C30.6822 11.5588 33.4556 8.98909 34.9743 7.12298ZM17.2795 4.35659L17.0359 4.04284L16.6752 4.20919C12.0812 6.32787 8.59636 10.3769 7.22019 15.3269L7.04947 15.941L7.68655 15.9606C10.2174 16.0384 16.2683 15.9218 22.9728 14.1657L23.602 14.0009L23.281 13.4352C20.6795 8.8514 18.4917 5.91782 17.2795 4.35659ZM37.177 8.61566L36.7929 8.16954L36.4148 8.62072C34.721 10.642 31.7789 13.2689 27.1194 15.0515L26.6031 15.249L26.8513 15.7429C27.8551 17.741 28.8289 19.8701 29.7162 22.1693L29.8604 22.543L30.2565 22.4838C33.6266 21.9807 36.7419 21.9807 39.0951 22.1608C39.6679 22.2073 40.0376 22.2595 40.4673 22.3202C40.5577 22.3329 40.6508 22.3461 40.749 22.3596L41.2584 22.4299L41.3143 21.9187C41.3834 21.2877 41.4231 20.6541 41.4231 19.999C41.4231 15.6422 39.8085 11.6724 37.177 8.61566ZM24.7531 16.2431L24.5675 15.8793L24.1739 15.9886C16.2818 18.1807 9.32954 18.1138 7.16395 18.0283L6.68337 18.0094L6.64576 18.4889L6.64311 18.5226C6.60572 18.999 6.56731 19.4885 6.56731 20.0086C6.56731 25.2465 8.88522 29.9194 12.5361 33.115L12.9042 33.4373L13.2344 33.0762C14.15 32.0748 15.378 30.7994 16.8712 29.4679L16.8732 29.4661C19.6819 26.9346 23.2978 24.254 27.2385 23.084L27.7636 22.9281L27.5605 22.4193C26.6792 20.2114 25.7304 18.159 24.7531 16.2431ZM34.4721 24.1433L34.4668 24.1436C33.4333 24.1923 32.333 24.2897 31.2142 24.4357L30.6133 24.5141L30.8043 25.0891C31.749 27.9326 32.5304 30.9447 33.0352 34.0779L33.1603 34.8541L33.8102 34.4116C37.0667 32.1946 39.5323 28.8981 40.6813 25.0256L40.8514 24.4521L40.2568 24.3864C38.764 24.2216 36.8717 24.0556 34.4721 24.1433ZM28.6744 25.3254L28.5196 24.8789L28.0651 25.0082C24.6108 25.9909 20.9951 28.5401 18.2535 31.0005C16.9289 32.179 15.8591 33.2977 15.0005 34.2142L14.5736 34.6698L15.1115 34.9868C17.713 36.5199 20.7328 37.4213 23.9904 37.4213C26.4353 37.4213 28.7417 36.9163 30.8484 36.0261L31.2018 35.8769L31.1491 35.4969C30.6537 31.9223 29.7798 28.5156 28.6744 25.3254ZM4.5 19.999C4.5 9.2565 13.2569 0.5 24 0.5C34.7431 0.5 43.5 9.2565 43.5 19.999C43.5 30.7416 34.7431 39.498 24 39.498C13.2569 39.498 4.5 30.7416 4.5 19.999Z" fill="#070707" stroke="#070707"/>
</g>
<defs>
<filter id="filter0_d_10122_123" x="0" y="0" width="48" height="47.998" filterUnits="userSpaceOnUse" color-interpolation-filters="sRGB">
<feFlood flood-opacity="0" result="BackgroundImageFix"/>
<feColorMatrix in="SourceAlpha" type="matrix" values="0 0 0 0 0 0 0 0 0 0 0 0 0 0 0 0 0 0 127 0" result="hardAlpha"/>
<feOffset dy="4"/>
<feGaussianBlur stdDeviation="2"/>
<feComposite in2="hardAlpha" operator="out"/>
<feColorMatrix type="matrix" values="0 0 0 0 0 0 0 0 0 0 0 0 0 0 0 0 0 0 0.25 0"/>
<feBlend mode="normal" in2="BackgroundImageFix" result="effect1_dropShadow_10122_123"/>
<feBlend mode="normal" in="SourceGraphic" in2="effect1_dropShadow_10122_123" result="shape"/>
</filter>
</defs>
</svg>
