<svg width="48" height="48" viewBox="0 0 48 48" fill="none" xmlns="http://www.w3.org/2000/svg">
<g filter="url(#filter0_d_13718_6)">
<path d="M30.3438 16.75C30.3438 16.9062 30.3438 17.0312 30.3438 17.1875C30.3438 21.5312 27.0625 26.5 21.0312 26.5C19.1562 26.5 17.4375 25.9688 16 25.0312C16.25 25.0625 16.5 25.0938 16.7812 25.0938C18.3125 25.0938 19.7188 24.5625 20.8438 23.6875C19.4062 23.6562 18.1875 22.7188 17.7812 21.4062C18 21.4375 18.1875 21.4688 18.4062 21.4688C18.6875 21.4688 19 21.4062 19.25 21.3438C17.75 21.0312 16.625 19.7188 16.625 18.125V18.0938C17.0625 18.3438 17.5938 18.4688 18.125 18.5C17.2188 17.9062 16.6562 16.9062 16.6562 15.7812C16.6562 15.1562 16.8125 14.5938 17.0938 14.125C18.7188 16.0938 21.1562 17.4062 23.875 17.5625C23.8125 17.3125 23.7812 17.0625 23.7812 16.8125C23.7812 15 25.25 13.5312 27.0625 13.5312C28 13.5312 28.8438 13.9062 29.4688 14.5625C30.1875 14.4062 30.9062 14.125 31.5312 13.75C31.2812 14.5312 30.7812 15.1562 30.0938 15.5625C30.75 15.5 31.4062 15.3125 31.9688 15.0625C31.5312 15.7188 30.9688 16.2812 30.3438 16.75Z" fill="white"/>
<circle opacity="0.4" cx="24" cy="20" r="19.5" stroke="white"/>
</g>
<defs>
<filter id="filter0_d_13718_6" x="0" y="0" width="48" height="48" filterUnits="userSpaceOnUse" color-interpolation-filters="sRGB">
<feFlood flood-opacity="0" result="BackgroundImageFix"/>
<feColorMatrix in="SourceAlpha" type="matrix" values="0 0 0 0 0 0 0 0 0 0 0 0 0 0 0 0 0 0 127 0" result="hardAlpha"/>
<feOffset dy="4"/>
<feGaussianBlur stdDeviation="2"/>
<feComposite in2="hardAlpha" operator="out"/>
<feColorMatrix type="matrix" values="0 0 0 0 0 0 0 0 0 0 0 0 0 0 0 0 0 0 0.25 0"/>
<feBlend mode="normal" in2="BackgroundImageFix" result="effect1_dropShadow_13718_6"/>
<feBlend mode="normal" in="SourceGraphic" in2="effect1_dropShadow_13718_6" result="shape"/>
</filter>
</defs>
</svg>
